<svg xmlns="http://www.w3.org/2000/svg" viewBox="0 0 136.481 51.473"><g id="bubble-helix"><circle cx="5.979" cy="20.3" r="5.979" fill="#945bb0"/><circle cx="21.317" cy="39.5" r="4.939" fill="#4266d5"/><circle cx="16.378" cy="11.7" r="4.939" fill="#c93d39"/><circle cx="35.095" cy="35.9" r="5.979" fill="#945bb0"/><circle cx="47.184" cy="23.8" r="7.409" fill="#4266d5"/><circle cx="28.986" cy="9.7" r="4.549" fill="#3b972e"/><circle cx="89.428" cy="46.5" r="4.939" fill="#c93d39"/><circle cx="71.62" cy="5.6" r="5.589" fill="#945bb0"/><circle cx="121.01" cy="15.5" r="5.589" fill="#c93d39"/><circle cx="59.662" cy="30.3" r="2.47" fill="#4266d5"/><circle cx="103.6" cy="19.9" r="3.25" fill="#c93d39"/><circle cx="123.61" cy="36.5" r="2.73" fill="#4266d5"/><circle cx="127.64" cy="5.2" r="3.9" fill="#3b972e"/><circle cx="132.58" cy="39.2" r="3.9" fill="#945bb0"/><circle cx="67.591" cy="37.4" r="3.38" fill="#3b972e"/><circle cx="95.017" cy="13.9" r="4.289" fill="#4266d5"/><circle cx="77.729" cy="42.9" r="3.9" fill="#945bb0"/><circle cx="102.56" cy="42" r="5.849" fill="#4266d5"/><circle cx="113.6" cy="28.8" r="6.759" fill="#3b972e"/><circle cx="57.582" cy="11" r="6.369" fill="#c93d39"/><circle cx="38.735" cy="14.8" r="3.38" fill="#c93d39"/><circle cx="84.618" cy="7.9" r="5.329" fill="#3b972e"/></g></svg>